<svg viewBox="0 0 200 50" xmlns="http://www.w3.org/2000/svg" xmlns:c2pa="http://c2pa.org/manifest"><metadata><c2pa:manifest>AAAWgmp1bWIAAAAeanVtZGMycGEAEQAQgAAAqgA4m3EDYzJwYQAAABZcanVtYgAAAEdqdW1kYzJtYQARABCAAACqADibcQN1cm46YzJwYTo1ZGY3ZTRjMy0wMTZkLTRmYWYtODBiNy00ODBjOTQ5YjdmYTkAAAADl2p1bWIAAAApanVtZGMyYXMAEQAQgAAAqgA4m3EDYzJwYS5hc3NlcnRpb25zAAAAALxqdW1iAAAARGp1bWRjYm9yABEAEIAAAKoAOJtxE2MycGEuaW5ncmVkaWVudC52MwAAAAAYYzJzaAV60W3YOJr+AHtZAzvbzuQAAABwY2JvcqNpZGM6Zm9ybWF0bWltYWdlL3N2Zyt4bWxqaW5zdGFuY2VJRHgseG1wOmlpZDozMjQ3NmE3OS0zODJiLTRjZTItOTVhNy0yYjA4MWViNzRiYWFscmVsYXRpb25zaGlwaHBhcmVudE9mAAAB4mp1bWIAAABBanVtZGNib3IAEQAQgAAAqgA4m3ETYzJwYS5hY3Rpb25zLnYyAAAAABhjMnNopdBcGqK4vEPy3lVV3jS2SAAAAZljYm9yomdhY3Rpb25zgqJmYWN0aW9ua2MycGEub3BlbmVkanBhcmFtZXRlcnOha2luZ3JlZGllbnRzgaJjdXJseC1zZWxmI2p1bWJmPWMycGEuYXNzZXJ0aW9ucy9jMnBhLmluZ3JlZGllbnQudjNkaGFzaFggwxGrUEWT7hQFMPP8zjZEUHFnexEu7grRP+9/uWOPYd6kZmFjdGlvbngdY29tLmFudGhyb3BpYy5jbGF1ZGUucHJvdmlkZWRqcGFyYW1ldGVyc6F4H2NvbS5hbnRocm9waWMub3JpZ2luLWNvbmZpZGVuY2VndW5rbm93bmtkZXNjcmlwdGlvbnhmQ2xhdWRlIHByb3ZpZGVkIHRoaXMgZmlsZSBhdCB0aGUgcmVxdWVzdCBvZiBhIHVzZXIgYW5kIG1heSBoYXZlIGNyZWF0ZWQgb3IgbW9kaWZpZWQgdGhlIGZpbGUgY29udGVudHMubXNvZnR3YXJlQWdlbnShZG5hbWVmQ2xhdWRlcmFsbEFjdGlvbnNJbmNsdWRlZPUAAADIanVtYgAAAEBqdW1kY2JvcgARABCAAACqADibcRNjMnBhLmhhc2guZGF0YQAAAAAYYzJzaM4j0iOqUbkROQDAoXonunMAAACAY2JvcqVjYWxnZnNoYTI1NmNwYWRNAAAAAAAAAAAAAAAAAGRoYXNoWCB+lkPH8fa0qm1mzuh9CM/AHOzB2zwYKPJ0EEs2oO0cVGRuYW1lbmp1bWJmIG1hbmlmZXN0amV4Y2x1c2lvbnOBomVzdGFydBh8Zmxlbmd0aBkeBAAAAj5qdW1iAAAAJ2p1bWRjMmNsABEAEIAAAKoAOJtxA2MycGEuY2xhaW0udjIAAAACD2Nib3KlY2FsZ2ZzaGEyNTZpc2lnbmF0dXJleE1zZWxmI2p1bWJmPS9jMnBhL3VybjpjMnBhOjVkZjdlNGMzLTAxNmQtNGZhZi04MGI3LTQ4MGM5NDliN2ZhOS9jMnBhLnNpZ25hdHVyZWppbnN0YW5jZUlEeCx4bXA6aWlkOjQ3ZTAzNDRjLTcyNGYtNDg2Ni1iNmUwLTY4MjU0ZjA2YTFiYnJjcmVhdGVkX2Fzc2VydGlvbnODomN1cmx4LXNlbGYjanVtYmY9YzJwYS5hc3NlcnRpb25zL2MycGEuaW5ncmVkaWVudC52M2RoYXNoWCDDEatQRZPuFAUw8/zONkRQcWd7ES7uCtE/73+5Y49h3qJjdXJseCpzZWxmI2p1bWJmPWMycGEuYXNzZXJ0aW9ucy9jMnBhLmFjdGlvbnMudjJkaGFzaFgglmvdc9rCUk/8c5K8/hk5YD5wNEUDYVa8DFs5eMhQ7imiY3VybHgpc2VsZiNqdW1iZj1jMnBhLmFzc2VydGlvbnMvYzJwYS5oYXNoLmRhdGFkaGFzaFggHkb7cVCu+RR0HeETyNO5Bi+8sr81UGE6RN1d+FXBmn50Y2xhaW1fZ2VuZXJhdG9yX2luZm+jZG5hbWVvQW50aHJvcGljIEZpbGVzZ3ZlcnNpb25lMS4wLjBrc3BlY1ZlcnNpb25lMi40LjAAABA4anVtYgAAAChqdW1kYzJjcwARABCAAACqADibcQNjMnBhLnNpZ25hdHVyZQAAABAIY2JvctKEWQISogEmGCFZAgowggIGMIIBjaADAgECAhRA5aAK7sI50L64g/oGQgU9Z1UTADAKBggqhkjOPQQDAzBJMRcwFQYDVQQKEw5BbnRocm9waWMsIFBCQzEuMCwGA1UEAxMlQW50aHJvcGljIENvbnRlbnQgQ3JlZGVudGlhbHMgUm9vdCBDQTAeFw0yNjA4MDcxODQzNTZaFw0yODA4MDYxOTQzNTZaMEQxFzAVBgNVBAoTDkFudGhyb3BpYywgUEJDMSkwJwYDVQQDEyBBbnRocm9waWMgQ2xhdWRlIENvbnRlbnQgU2lnbmluZzBZMBMGByqGSM49AgEGCCqGSM49AwEHA0IABJh6CmvLUBgFFNU0vUKlOVtE6djd17L5SuwX0LemFisBM3dkd/3cyjxFA3Qo5S46fX0/ihY0VZ7mfb9KF703t5OjWDBWMA4GA1UdDwEB/wQEAwIHgDAVBgNVHSUEDjAMBgorBgEEAYPoXgIBMAwGA1UdEwEB/wQCMAAwHwYDVR0jBBgwFoAUzlHiBIFOZFsj+OPEz5o+nMHXXMIwCgYIKoZIzj0EAwMDZwAwZAIwMXMdFJ4BetLLVY7ORuE9noqbbAZOZn/aArXyTwFAZfKrPzxF2vPoJNf1+UCdg1XGAjBwX1zd9WGqYkqmL5SFqw1QySjr1zJfpJM9+1rdDwSPLMOPOjKuiXjoU/pUUeG9RwmhY3BhZFkNngAAAAAAAAAAAAAAAAAAAAAAAAAAAAAAAAAAAAAAAAAAAAAAAAAAAAAAAAAAAAAAAAAAAAAAAAAAAAAAAAAAAAAAAAAAAAAAAAAAAAAAAAAAAAAAAAAAAAAAAAAAAAAAAAAAAAAAAAAAAAAAAAAAAAAAAAAAAAAAAAAAAAAAAAAAAAAAAAAAAAAAAAAAAAAAAAAAAAAAAAAAAAAAAAAAAAAAAAAAAAAAAAAAAAAAAAAAAAAAAAAAAAAAAAAAAAAAAAAAAAAAAAAAAAAAAAAAAAAAAAAAAAAAAAAAAAAAAAAAAAAAAAAAAAAAAAAAAAAAAAAAAAAAAAAAAAAAAAAAAAAAAAAAAAAAAAAAAAAAAAAAAAAAAAAAAAAAAAAAAAAAAAAAAAAAAAAAAAAAAAAAAAAAAAAAAAAAAAAAAAAAAAAAAAAAAAAAAAAAAAAAAAAAAAAAAAAAAAAAAAAAAAAAAAAAAAAAAAAAAAAAAAAAAAAAAAAAAAAAAAAAAAAAAAAAAAAAAAAAAAAAAAAAAAAAAAAAAAAAAAAAAAAAAAAAAAAAAAAAAAAAAAAAAAAAAAAAAAAAAAAAAAAAAAAAAAAAAAAAAAAAAAAAAAAAAAAAAAAAAAAAAAAAAAAAAAAAAAAAAAAAAAAAAAAAAAAAAAAAAAAAAAAAAAAAAAAAAAAAAAAAAAAAAAAAAAAAAAAAAAAAAAAAAAAAAAAAAAAAAAAAAAAAAAAAAAAAAAAAAAAAAAAAAAAAAAAAAAAAAAAAAAAAAAAAAAAAAAAAAAAAAAAAAAAAAAAAAAAAAAAAAAAAAAAAAAAAAAAAAAAAAAAAAAAAAAAAAAAAAAAAAAAAAAAAAAAAAAAAAAAAAAAAAAAAAAAAAAAAAAAAAAAAAAAAAAAAAAAAAAAAAAAAAAAAAAAAAAAAAAAAAAAAAAAAAAAAAAAAAAAAAAAAAAAAAAAAAAAAAAAAAAAAAAAAAAAAAAAAAAAAAAAAAAAAAAAAAAAAAAAAAAAAAAAAAAAAAAAAAAAAAAAAAAAAAAAAAAAAAAAAAAAAAAAAAAAAAAAAAAAAAAAAAAAAAAAAAAAAAAAAAAAAAAAAAAAAAAAAAAAAAAAAAAAAAAAAAAAAAAAAAAAAAAAAAAAAAAAAAAAAAAAAAAAAAAAAAAAAAAAAAAAAAAAAAAAAAAAAAAAAAAAAAAAAAAAAAAAAAAAAAAAAAAAAAAAAAAAAAAAAAAAAAAAAAAAAAAAAAAAAAAAAAAAAAAAAAAAAAAAAAAAAAAAAAAAAAAAAAAAAAAAAAAAAAAAAAAAAAAAAAAAAAAAAAAAAAAAAAAAAAAAAAAAAAAAAAAAAAAAAAAAAAAAAAAAAAAAAAAAAAAAAAAAAAAAAAAAAAAAAAAAAAAAAAAAAAAAAAAAAAAAAAAAAAAAAAAAAAAAAAAAAAAAAAAAAAAAAAAAAAAAAAAAAAAAAAAAAAAAAAAAAAAAAAAAAAAAAAAAAAAAAAAAAAAAAAAAAAAAAAAAAAAAAAAAAAAAAAAAAAAAAAAAAAAAAAAAAAAAAAAAAAAAAAAAAAAAAAAAAAAAAAAAAAAAAAAAAAAAAAAAAAAAAAAAAAAAAAAAAAAAAAAAAAAAAAAAAAAAAAAAAAAAAAAAAAAAAAAAAAAAAAAAAAAAAAAAAAAAAAAAAAAAAAAAAAAAAAAAAAAAAAAAAAAAAAAAAAAAAAAAAAAAAAAAAAAAAAAAAAAAAAAAAAAAAAAAAAAAAAAAAAAAAAAAAAAAAAAAAAAAAAAAAAAAAAAAAAAAAAAAAAAAAAAAAAAAAAAAAAAAAAAAAAAAAAAAAAAAAAAAAAAAAAAAAAAAAAAAAAAAAAAAAAAAAAAAAAAAAAAAAAAAAAAAAAAAAAAAAAAAAAAAAAAAAAAAAAAAAAAAAAAAAAAAAAAAAAAAAAAAAAAAAAAAAAAAAAAAAAAAAAAAAAAAAAAAAAAAAAAAAAAAAAAAAAAAAAAAAAAAAAAAAAAAAAAAAAAAAAAAAAAAAAAAAAAAAAAAAAAAAAAAAAAAAAAAAAAAAAAAAAAAAAAAAAAAAAAAAAAAAAAAAAAAAAAAAAAAAAAAAAAAAAAAAAAAAAAAAAAAAAAAAAAAAAAAAAAAAAAAAAAAAAAAAAAAAAAAAAAAAAAAAAAAAAAAAAAAAAAAAAAAAAAAAAAAAAAAAAAAAAAAAAAAAAAAAAAAAAAAAAAAAAAAAAAAAAAAAAAAAAAAAAAAAAAAAAAAAAAAAAAAAAAAAAAAAAAAAAAAAAAAAAAAAAAAAAAAAAAAAAAAAAAAAAAAAAAAAAAAAAAAAAAAAAAAAAAAAAAAAAAAAAAAAAAAAAAAAAAAAAAAAAAAAAAAAAAAAAAAAAAAAAAAAAAAAAAAAAAAAAAAAAAAAAAAAAAAAAAAAAAAAAAAAAAAAAAAAAAAAAAAAAAAAAAAAAAAAAAAAAAAAAAAAAAAAAAAAAAAAAAAAAAAAAAAAAAAAAAAAAAAAAAAAAAAAAAAAAAAAAAAAAAAAAAAAAAAAAAAAAAAAAAAAAAAAAAAAAAAAAAAAAAAAAAAAAAAAAAAAAAAAAAAAAAAAAAAAAAAAAAAAAAAAAAAAAAAAAAAAAAAAAAAAAAAAAAAAAAAAAAAAAAAAAAAAAAAAAAAAAAAAAAAAAAAAAAAAAAAAAAAAAAAAAAAAAAAAAAAAAAAAAAAAAAAAAAAAAAAAAAAAAAAAAAAAAAAAAAAAAAAAAAAAAAAAAAAAAAAAAAAAAAAAAAAAAAAAAAAAAAAAAAAAAAAAAAAAAAAAAAAAAAAAAAAAAAAAAAAAAAAAAAAAAAAAAAAAAAAAAAAAAAAAAAAAAAAAAAAAAAAAAAAAAAAAAAAAAAAAAAAAAAAAAAAAAAAAAAAAAAAAAAAAAAAAAAAAAAAAAAAAAAAAAAAAAAAAAAAAAAAAAAAAAAAAAAAAAAAAAAAAAAAAAAAAAAAAAAAAAAAAAAAAAAAAAAAAAAAAAAAAAAAAAAAAAAAAAAAAAAAAAAAAAAAAAAAAAAAAAAAAAAAAAAAAAAAAAAAAAAAAAAAAAAAAAAAAAAAAAAAAAAAAAAAAAAAAAAAAAAAAAAAAAAAAAAAAAAAAAAAAAAAAAAAAAAAAAAAAAAAAAAAAAAAAAAAAAAAAAAAAAAAAAAAAAAAAAAAAAAAAAAAAAAAAAAAAAAAAAAAAAAAAAAAAAAAAAAAAAAAAAAAAAAAAAAAAAAAAAAAAAAAAAAAAAAAAAAAAAAAAAAAAAAAAAAAAAAAAAAAAAAAAAAAAAAAAAAAAAAAAAAAAAAAAAAAAAAAAAAAAAAAAAAAAAAAAAAAAAAAAAAAAAAAAAAAAAAAAAAAAAAAAAAAAAAAAAAAAAAAAAAAAAAAAAAAAAAAAAAAAAAAAAAAAAAAAAAAAAAAAAAAAAAAAAAAAAAAAAAAAAAAAAAAAAAAAAAAAAAAAAAAAAAAAAAAAAAAAAAAAAAAAAAAAAAAAAAAAAAAAAAAAAAAAAAAAAAAAAAAAAAAAAAAAAAAAAAAAAAAAAAAAAAAAAAAAAAAAAAAAAAAAAAAAAAAAAAAAAAAAAAAAAAAAAAAAAAAAAAAAAAAAAAAAAAAAAAAAAAAAAAAAAAAAAAAAAAAAAAAAAAAAAAAAAAAAAAAAAAAAAAAAAAAAAAAAAAAAAAAAAAAAAAAAAAAAAAAAAAAAAAAAAAAAAAAAAAAAAAAAAAAAAAAAAAAAAAAAAAAAAAAAAAAAAAAAAAAAAAAAAAAAAAAAAAAAAAAAAAAAAAAAAAAAAAAAAAAAAAAAAAAAAAAAAAAAAAAAAAAAAAAAAAAAAAAAAAAAAAAAAAAAAAAAAAAAAAAAAAAAAAAAAAAAAAAAAAAAAAAAAAAAAAAAAAAAAAAAAAAAAAAAAAAAAAAAAAAAAAAAAAAAAAAAAAAAAAAAAAAAAAAAAAAAAAAAAAAAAAAAAAAAAAAAAAAAAAAAAAAAAAAAAAAAAAAAAAAAAAAAAAAAAAAAAAAAAAAAAAAAAAAAAAAAAAAAAAAAAAAAAAAAAAAAAAAAAAAAAAAAAAAAAAAAAAAAAAAAAAAAAAAAAAAAAAAAAAAAAAAAAAAAAAAAAAAAAAAAAAAAAAAAAAAAAAAAAAAAAAAAAAAAAAAAAAAAAAAAAAAAAAAAAAAAAAAAAAAAAAAAAAAAAAAAAAAAAAAAAAAAAAAAAAAAAAAAAAAAAAAAAAAAAAAAAAAAAAAAAAAAAAAAAAAAAAAAAAAAAAAAAAAAAAAAAAAAAAAAAAAAAAAAAAAAAAAAAAAAAAAAAAAAAAAAAAAAAAAAAAAAAAAAAAAAAAAAAAAAAAAAAAAAAAAAAAAAAAAAAAAAAAAAAAAAAAAAAAAAAAAAAAAAAAAAAAAAAAAAAAAAAAAAAAAAAAAAAAAAAAAAAAAAAAAAAAAAAAAAAAAAAAAAAAAAAAAAAAAAAAAAAAAAAAAAAAAAAAAAAAAAAAAAAAAAAAAAAAAAAAAAAAAAAAAAAAAAAAAAAAAAAAAAAAAAAAAAAAAAAAAAAAAAAAAAAAAAAAAAAAAAAAAAAAAAAAAAAAAAAAAAAAAAAAAAAAAAAAAAAAAAAAAAAAAAAAAAAAAAAAAAAAAAAAAAAAAAAAAAAAAAAAAAAAAAAAAAAAAAAPZYQGQVqpOlgyBmNCoCu5Dq9u9AGmquJCr4dpknh4v+cTwa0VSHqK4DiPd/lqKuv3PGuGAkeC0XmVd0RLIk9rcQriY=</c2pa:manifest></metadata>
<style>
.hb-mover,.hb-walkcycle,.hb-leg,.hb-arm,.hb-sprout{transform-box:fill-box;}
.hb-mover{transform-origin:50% 50%;animation:hb-move 11s linear infinite,hb-flip 11s linear infinite;}
.hb-walkcycle{transform-origin:50% 100%;animation:hb-bob 1.3s ease-in-out infinite;}
.hb-leg{transform-origin:50% 0%;animation:hb-leg-swing 1.3s ease-in-out infinite;}
.hb-leg-back{animation-delay:0s;}
.hb-leg-front{animation-delay:-0.65s;}
.hb-arm{transform-origin:50% 0%;animation:hb-arm-swing 1.3s ease-in-out infinite;animation-delay:-0.3s;}
.hb-sprout{transform-origin:50% 100%;animation:hb-sprout-wiggle 11s linear infinite;}

@keyframes hb-move{0%{translate:0 0;}50%{translate:142px 0;}100%{translate:0 0;}}
@keyframes hb-flip{0%,49.9%{scale:1 1;}50%,99.9%{scale:-1 1;}100%{scale:1 1;}}
@keyframes hb-bob{0%,100%{translate:0 0;}50%{translate:0 -0.6px;}}
@keyframes hb-leg-swing{0%,100%{rotate:11deg;}50%{rotate:-11deg;}}
@keyframes hb-arm-swing{0%,100%{rotate:-5deg;}50%{rotate:5deg;}}
@keyframes hb-sprout-wiggle{0%{rotate:0deg;}3%{rotate:12deg;}6%{rotate:-7deg;}9%,100%{rotate:0deg;}}

@media (prefers-reduced-motion: reduce){
  .hb-mover{animation:none;translate:71px 0;scale:1 1;}
  .hb-walkcycle{animation:none;translate:0 0;}
  .hb-leg,.hb-arm{animation:none;rotate:0deg;}
  .hb-sprout{animation:none;rotate:0deg;}
}
</style>

<!-- 畝：影 -->
<path d="M0,50 L0,40 C20,37 35,39 55,36 C75,34 95,38 115,35 C135,33 155,37 175,35 C185,34 200,36 200,37 L200,50 Z" fill="#5E4330"/>
<!-- 畝：土 -->
<path d="M0,47 L0,40 C20,37 35,39 55,36 C75,34 95,38 115,35 C135,33 155,37 175,35 C185,34 200,36 200,37 L200,47 Z" fill="#8A5A2B"/>

<!-- 双葉（芽） -->
<g class="hb-sprout" transform="translate(25,37.5)" style="animation-delay:-0.27s">
  <path d="M0,0 C-1,-1.6 -1.3,-2.8 -0.2,-3.4 C0.2,-2.4 0.3,-1.2 0,0 Z" fill="#4E7A3F"/>
  <path d="M0,0 C1,-1.6 1.3,-2.8 0.2,-3.4 C-0.2,-2.4 -0.3,-1.2 0,0 Z" fill="#4E7A3F"/>
</g>
<g class="hb-sprout" transform="translate(50,36.5)" style="animation-delay:-1.24s">
  <path d="M0,0 C-1,-1.6 -1.3,-2.8 -0.2,-3.4 C0.2,-2.4 0.3,-1.2 0,0 Z" fill="#4E7A3F"/>
  <path d="M0,0 C1,-1.6 1.3,-2.8 0.2,-3.4 C-0.2,-2.4 -0.3,-1.2 0,0 Z" fill="#4E7A3F"/>
</g>
<g class="hb-sprout" transform="translate(75,37)" style="animation-delay:-2.21s">
  <path d="M0,0 C-1,-1.6 -1.3,-2.8 -0.2,-3.4 C0.2,-2.4 0.3,-1.2 0,0 Z" fill="#4E7A3F"/>
  <path d="M0,0 C1,-1.6 1.3,-2.8 0.2,-3.4 C-0.2,-2.4 -0.3,-1.2 0,0 Z" fill="#4E7A3F"/>
</g>
<g class="hb-sprout" transform="translate(100,36.5)" style="animation-delay:-3.18s">
  <path d="M0,0 C-1,-1.6 -1.3,-2.8 -0.2,-3.4 C0.2,-2.4 0.3,-1.2 0,0 Z" fill="#4E7A3F"/>
  <path d="M0,0 C1,-1.6 1.3,-2.8 0.2,-3.4 C-0.2,-2.4 -0.3,-1.2 0,0 Z" fill="#4E7A3F"/>
</g>
<g class="hb-sprout" transform="translate(125,35.5)" style="animation-delay:-4.14s">
  <path d="M0,0 C-1,-1.6 -1.3,-2.8 -0.2,-3.4 C0.2,-2.4 0.3,-1.2 0,0 Z" fill="#4E7A3F"/>
  <path d="M0,0 C1,-1.6 1.3,-2.8 0.2,-3.4 C-0.2,-2.4 -0.3,-1.2 0,0 Z" fill="#4E7A3F"/>
</g>
<g class="hb-sprout" transform="translate(150,36)" style="animation-delay:-5.11s">
  <path d="M0,0 C-1,-1.6 -1.3,-2.8 -0.2,-3.4 C0.2,-2.4 0.3,-1.2 0,0 Z" fill="#4E7A3F"/>
  <path d="M0,0 C1,-1.6 1.3,-2.8 0.2,-3.4 C-0.2,-2.4 -0.3,-1.2 0,0 Z" fill="#4E7A3F"/>
</g>

<!-- 畑番 -->
<g class="hb-mover">
  <g transform="translate(18,37)">
    <g class="hb-walkcycle">

      <g class="hb-leg hb-leg-back">
        <path d="M-1.7,-13.5 L-0.5,-13.5 L-0.9,-3.2 L-2.0,-3.2 Z" fill="#1C2B3D"/>
        <path d="M-2.0,-3.2 L-0.5,-3.2 L0.4,-1.1 L-2.5,-1.1 Z" fill="#8A5A2B"/>
      </g>

      <path d="M-2.7,-24 L2.7,-24 L1.9,-13.5 L-1.9,-13.5 Z" fill="#1C2B3D"/>
      <path d="M-1.6,-25.4 Q0,-22.2 1.6,-25.4 Q0,-23.7 -1.6,-25.4 Z" fill="#1C2B3D"/>
      <rect x="-0.6" y="-25" width="1.2" height="1.4" fill="#E8BE98"/>
      <circle cx="0" cy="-27.1" r="2.6" fill="#E8BE98"/>
      <ellipse cx="0" cy="-30.5" rx="5.7" ry="1.2" fill="#D8B45A"/>
      <ellipse cx="0" cy="-32.1" rx="2.9" ry="1.8" fill="#D8B45A"/>
      <rect x="-2.9" y="-31.2" width="5.8" height="1.3" rx="0.65" fill="#A83B2E"/>

      <g class="hb-arm">
        <path d="M2.1,-23.5 L3.7,-16 L2.5,-15.6 L1.3,-23.2 Z" fill="#1C2B3D"/>
        <circle cx="3.7" cy="-15.6" r="0.75" fill="#E8BE98"/>
        <path d="M3.1,-15.2 L4.9,-15.2 L4.7,-8.4 L3.3,-8.4 Z" fill="#6E8B9E"/>
        <path d="M4.9,-14 L8.4,-12.3 L8,-11.5 L4.5,-13 Z" fill="#6E8B9E"/>
      </g>

      <g class="hb-leg hb-leg-front">
        <path d="M0.5,-13.5 L1.7,-13.5 L2.0,-3.2 L0.9,-3.2 Z" fill="#1C2B3D"/>
        <path d="M0.9,-3.2 L2.0,-3.2 L2.9,-1.1 L0.2,-1.1 Z" fill="#8A5A2B"/>
      </g>

    </g>
  </g>
</g>
</svg>
